<?xml version="1.0" standalone="no"?>
<!DOCTYPE svg PUBLIC "-//W3C//DTD SVG 20010904//EN"
 "http://www.w3.org/TR/2001/REC-SVG-20010904/DTD/svg10.dtd">
<svg version="1.0" xmlns="http://www.w3.org/2000/svg"
 width="501.000000pt" height="498.000000pt" viewBox="0 0 501.000000 498.000000"
 preserveAspectRatio="xMidYMid meet">

<g transform="translate(0.000000,498.000000) scale(0.100000,-0.100000)"
fill="#000000" stroke="none">
<path d="M1395 3164 c-242 -38 -456 -216 -548 -456 -30 -80 -31 -89 -31 -233
0 -145 1 -153 32 -235 82 -215 238 -362 463 -436 47 -16 105 -18 472 -22 l417
-3 0 380 c0 210 -3 381 -8 381 -4 0 -113 -106 -242 -236 -259 -260 -290 -283
-360 -264 -32 9 -76 47 -234 203 -126 124 -201 205 -210 229 -32 76 -14 151
50 213 73 71 151 92 217 59 18 -9 73 -56 122 -105 l91 -90 189 197 c105 108
191 199 193 203 1 4 -20 27 -48 50 -130 110 -263 161 -430 166 -58 2 -118 1
-135 -1z"/>
<path d="M2391 2707 c-100 -36 -109 -183 -15 -248 27 -18 44 -38 44 -50 0 -32
-28 -34 -60 -4 -17 16 -31 27 -33 24 -10 -12 -26 -114 -20 -119 16 -14 77 -30
115 -30 92 0 138 47 138 143 0 63 -19 94 -80 128 -57 32 -65 69 -15 69 13 0
32 -11 44 -26 l20 -25 11 43 c6 24 13 51 16 60 10 34 -104 58 -165 35z"/>
<path d="M2600 2608 c0 -186 26 -275 90 -310 50 -26 84 -23 124 12 55 49 69
100 70 258 l1 137 -60 0 -60 0 -3 -115 c-1 -63 -7 -119 -12 -124 -17 -17 -30
44 -30 145 l0 99 -60 0 -60 0 0 -102z"/>
<path d="M2945 2698 c-3 -7 -4 -101 -2 -208 l2 -195 63 -3 62 -3 0 76 c0 67 2
76 18 73 20 -4 41 -58 41 -110 l1 -38 65 0 65 0 -6 33 c-11 58 -26 111 -39
137 -11 21 -11 30 1 50 18 34 18 114 -1 151 -9 16 -27 34 -41 39 -39 15 -224
13 -229 -2z m154 -82 c18 -21 10 -70 -11 -74 -15 -3 -18 4 -18 42 0 47 9 57
29 32z"/>
<path d="M3255 2698 c2 -7 22 -94 45 -193 23 -99 43 -188 46 -197 4 -15 17
-18 64 -18 47 0 60 3 64 18 10 34 86 378 86 390 0 9 -16 12 -57 10 l-58 -3
-14 -57 c-7 -32 -17 -58 -21 -58 -4 0 -14 26 -22 58 l-14 57 -62 3 c-47 2 -61
0 -57 -10z"/>
<path d="M3610 2500 l0 -210 115 0 115 0 0 50 0 50 -55 0 c-54 0 -55 0 -55 30
0 28 2 30 40 30 l40 0 0 50 0 50 -40 0 c-38 0 -40 2 -40 30 0 30 1 30 55 30
l55 0 0 50 0 50 -115 0 -115 0 0 -210z"/>
<path d="M3887 2653 c14 -32 38 -84 54 -117 26 -52 29 -68 29 -152 l0 -94 60
0 60 0 0 89 c0 93 8 116 96 295 8 16 14 31 14 33 0 1 -27 3 -60 3 l-60 0 -22
-45 c-12 -25 -25 -45 -29 -45 -3 0 -14 20 -23 45 l-18 45 -63 0 -64 0 26 -57z"/>
<path d="M2300 2115 l0 -85 30 0 30 0 0 -125 0 -125 65 0 65 0 0 125 0 125 30
0 30 0 0 85 0 85 -125 0 -125 0 0 -85z"/>
<path d="M2634 2173 c-3 -16 -26 -108 -50 -205 -24 -97 -44 -180 -44 -183 0
-3 27 -5 60 -5 59 0 60 0 68 33 8 30 11 32 60 35 l51 3 7 -35 6 -36 59 0 c41
0 59 4 59 13 0 7 -20 100 -45 206 -25 106 -45 195 -45 197 0 2 -40 4 -90 4
-90 0 -90 0 -96 -27z m113 -186 c4 -29 2 -38 -11 -43 -28 -11 -36 8 -24 54 12
49 26 44 35 -11z"/>
<path d="M2950 1990 l0 -210 120 0 120 0 0 50 0 50 -60 0 -60 0 0 160 0 160
-60 0 -60 0 0 -210z"/>
<path d="M3230 1990 l0 -210 60 0 60 0 0 75 c0 41 3 75 8 75 27 -1 62 -64 62
-115 l0 -35 66 0 66 0 -4 54 c-2 30 -16 77 -30 106 -26 52 -26 52 -7 84 18 31
41 153 32 169 -2 4 -31 7 -64 7 -58 0 -59 0 -59 -29 0 -42 -20 -90 -42 -102
-27 -14 -32 -7 -29 48 2 77 -3 83 -65 83 l-54 0 0 -210z"/>
</g>
</svg>
